<?xml version="1.0" encoding="UTF-8"?>
<svg id="Layer_1" data-name="Layer 1" xmlns="http://www.w3.org/2000/svg" viewBox="0 0 211.1 144.23">
  <defs>
    <style>
      .cls-1 {
        fill: #828282;
      }

      .cls-2 {
        fill: #818181;
      }
    </style>
  </defs>
  <path class="cls-2" d="M116.43,28.8c4.04,4.78,10.69,15.56,12.53,20.91.87,2.53,4.1,12.47,1.17,13.45-4.28,1.44-5.8-1.38-8.41-2.27-5.9-2.01-11.54-3.94-16.91-6.02-10.9-4.23-21.7-11.47-33.93-10.48l40.92,27.33-1.71,3.58c-4.68,1.54-8.39,4.95-12.36,7.36-4.86,2.95-10.96,5.79-16.06,8.62l-11.78,7.87c4.01-.24,8.22.53,12.2-.27,10.42-2.08,29.59-12.93,40.73-17.14,4.58-1.73,9.46-4.64,8.97,1.93-.03.45-1.94,7.97-2.21,8.79C108.59,157.51,12.95,150.14,1.04,82.65-10.29,18.45,73.86-21.56,116.43,28.8Z"/>
  <path class="cls-1" d="M177.89,88.3c-5.88-2.72-13.65-4.04-20.14-5.09l.22-21.69c6.93-3.64,12.96-1.88,20.21-6.23,3.87-2.32,10.49-8.8,10.5-13.41,0-.71-3.86-9.89-4.66-11.2-3.44-5.66-16.17-11.34-22.62-11.13-1.81.06-11.93,2.51-13.84,3.21-4.63,1.7-6.88,5.71-12.25,4.67-.82-.16-13.62-8.25-14.07-8.95-2.41-3.76,9.95-10.99,12.67-12.32,20.49-10.01,49.26-8.1,66.35,7.8,14.22,13.22,13.34,38.35,2.11,53.02-1.35,1.76-4.78,1.6-4.79,5.8,0,.61,6.81,7.25,7.99,9.28,11.45,19.84,4.6,44.91-15.7,55.6-18.39,9.68-42.29,8.34-60.25-1.77-2.54-1.43-9.69-7.19-8.86-10.21.17-.63,9.77-5.81,11.29-6.64.65-.36.64-1.76,1.44-1.93,1.42-.31,6.19-.31,7.6,0,.81.18.77,1.66,1.39,1.96,4.49,2.18,15.85,5.41,20.75,5.03,2.8-.22,12.37-3.16,14.41-4.56,1.04-.71,7.69-7.47,8.01-8.19.35-.79,2.89-9.02,2.86-9.52-.06-1.06-4.18-9.67-5.08-10.33"/>
  <path class="cls-1" d="M140.47,66.49c5.66-1.67,10.45-.34,10.21,6.18-.19,5.44-3.41,6.5-8.39,5.54-5.58-1.08-6.31-10.4-1.82-11.72Z"/>
</svg>
